# xmcd
#
# Track frame offsets:
#	150
#	27451
#	55046
#	75370
#	101297
#	126245
#	147682
#	172710
#	202806
#	213650
#	237775
#	256941
#	280155
#	309007
#
# Disc length: 4384 seconds
#
# Revision: 0
# Processed by: cddbd v1.5.2PL0 Copyright (c) Steve Scherf et al.
# Submitted via: EasyCDDAExtractor 15.3.0.1
#
DISCID=b3111e0e
DTITLE=Walter Trout and The Free Radicals - Relentless
DYEAR=2003
DGENRE=Blues
TTITLE0=I'm Tired
TTITLE1=The Life I Chose
TTITLE2=Jericho Road
TTITLE3=Work No More
TTITLE4=Talk To Ya
TTITLE5=Cry If You Want To
TTITLE6=Chatroom Girl
TTITLE7=My Heart Is True
TTITLE8=Lonely Tonight
TTITLE9=Helpin' Hand
TTITLE10=Collingswood
TTITLE11=Empty Eyes
TTITLE12=The Best You Got
TTITLE13=Mercy
EXTD=
EXTT0=
EXTT1=
EXTT2=
EXTT3=
EXTT4=
EXTT5=
EXTT6=
EXTT7=
EXTT8=
EXTT9=
EXTT10=
EXTT11=
EXTT12=
EXTT13=
PLAYORDER=
